<?xml version="1.0" encoding="UTF-8" standalone="no"?>
<!DOCTYPE svg PUBLIC "-//W3C//DTD SVG 1.1//EN" "http://www.w3.org/Graphics/SVG/1.1/DTD/svg11.dtd">
<svg version="1.1" xmlns="http://www.w3.org/2000/svg" xmlns:xlink="http://www.w3.org/1999/xlink" preserveAspectRatio="xMidYMid meet" viewBox="0 0 640 640" width="640" height="640"><defs><path d="M341.12 64.51C345.33 62.71 350.2 64.69 351.96 68.91C368.89 109.39 415.94 221.91 432.73 262.08C434.86 267.17 432.43 273.02 427.32 275.1C400.04 286.2 328.33 315.39 301.26 326.41C295.53 328.74 289 326.04 286.58 320.35C269.89 280.97 224.04 172.86 207.32 133.42C204.99 127.92 207.55 121.57 213.05 119.22C240.19 107.62 313.52 76.3 341.12 64.51Z" id="d23TwCVLQ3"></path><path d="M368.95 389.71L385 421.82L398.87 456.13L404.71 478.03L407.63 499.2L410.55 513.8L420.77 537.15L345.59 576" id="bzLh6ATUH"></path><path d="M350 391.42L351 381.42L354.75 370.92L371.25 366.42L385.75 362.17L387.5 363.92L390.75 367.67L394.25 372.67L397.5 378.17L399.5 382.67L400.5 386.17L400 390.67L398.25 393.17L394.75 395.92L391.25 397.67L387.75 398.92L381.75 398.67L377.5 395.92L373.75 392.42L370.25 389.17L369.25 391.17L350 391.42Z" id="b2LkvgtPTd"></path><path d="M376.25 365.42L361.75 378.17L369.5 393.17L346.25 574.42C346.07 575.01 345.96 575.38 345.91 575.53C345.82 575.83 345.41 575.89 345.24 575.62C344.47 574.43 342.56 571.44 339.5 566.67L335.25 557.92L329.75 548.67L323.75 540.67L319 533.67L314 527.92L310.25 523.67L299.5 511.42L282.25 491.42L268.75 476.17L253.25 460.42L246 453.17L233.5 440.42L229 436.17L226 432.17L221.5 427.17L219 422.67L217 417.92L215.5 412.17L215 407.17L215 403.17L217 398.67L219.25 391.67L221.75 384.42L224.25 377.17L226 369.67L226.5 362.67L228.75 352.17L229.5 344.67L231 336.92L232.75 329.92L234.75 323.67L236.75 317.17L239.75 310.67L244.75 304.17L248.5 299.92L253.75 294.17L258.5 289.42L264 283.92L267.25 280.42L269.75 278.92C280.29 303.79 285.46 316.29 285.25 316.42C284.94 316.6 284.81 316.1 284 317.17C283.46 317.87 282.79 319.12 282 320.92L280 323.92L277.25 328.42L277 331.17L277.75 336.67L278.5 345.17L279.25 350.67L280.5 356.92L281.25 362.17L283.25 367.67L286.75 371.67L290.5 374.67L294 376.42L298.75 376.17L302.25 375.17L305.75 373.17L307.25 370.67L307.75 365.67L307.75 360.17L307.5 354.92L307.25 348.92L306 342.17L305 335.17L303.75 327.92L302.75 321.92L301.5 316.17L300 308.92L299.5 303.17L298.75 296.67L299 288.67L299.5 284.17L300.5 279.42L302 275.17L304.25 270.17L307.25 264.92L310.25 261.67L314.25 258.42L319 255.92L323.75 255.42L327.5 256.42L331.75 259.17L335.5 264.17L337.5 267.42L339.5 271.67L342 277.17L343 280.67L345.25 284.92L347.25 288.92L355.25 288.67L361.75 288.42L364.25 288.92L368.5 291.67L370.5 295.17L373 299.17L374 302.42L374 306.42L373 309.17L370.75 312.17L368 314.42L364.5 315.92L361.25 317.42L365.25 319.42L368.75 321.17L374.25 324.42C377.58 326.67 379.67 328.08 380.5 328.67C381.33 329.25 383 330.42 385.5 332.17L389.5 335.42L393 339.17L395.75 341.67L397.5 344.92L398.25 346.92L398 349.17L396.5 351.67L394 354.17L391.5 356.92L389.25 359.67L385.75 360.92L385.75 362.92L376.25 365.42Z" id="a3vSdjKHrX"></path></defs><g><g><g><use xlink:href="#d23TwCVLQ3" opacity="1" fill="#f74929" fill-opacity="1"></use></g><g><use xlink:href="#bzLh6ATUH" opacity="1" fill="#000000" fill-opacity="1"></use></g><g><use xlink:href="#b2LkvgtPTd" opacity="1" fill="#000000" fill-opacity="1"></use></g><g><use xlink:href="#a3vSdjKHrX" opacity="1" fill="#000000" fill-opacity="1"></use></g></g></g></svg>