<?xml version="1.0" encoding="UTF-8" standalone="no"?>
<!DOCTYPE svg PUBLIC "-//W3C//DTD SVG 1.1//EN" "http://www.w3.org/Graphics/SVG/1.1/DTD/svg11.dtd">
<svg version="1.1" xmlns="http://www.w3.org/2000/svg" xmlns:xlink="http://www.w3.org/1999/xlink" preserveAspectRatio="xMidYMid meet" viewBox="0 0 640 640" width="640" height="640"><defs><path d="M257.09 298.85L261.6 301.15L266.22 303.29L270.93 305.27L275.74 307.08L280.64 308.71L285.62 310.17L290.69 311.44L295.83 312.53L301.05 313.43L306.33 314.14L311.68 314.65L317.09 314.96L322.56 315.06L328.02 314.96L333.43 314.65L338.78 314.14L344.07 313.43L349.29 312.53L354.43 311.44L359.49 310.17L364.48 308.71L369.38 307.08L374.19 305.27L378.9 303.29L383.51 301.15L388.03 298.85L392.43 296.39L395.25 294.68L395.25 328.91L395.02 328.91L395.18 331.08L395.25 333.64L395.18 336.21L395 338.75L394.69 341.26L394.26 343.73L393.72 346.18L393.06 348.59L392.3 350.97L391.42 353.31L390.44 355.61L389.35 357.86L388.16 360.07L386.87 362.24L385.48 364.36L384 366.42L382.43 368.44L380.77 370.4L379.02 372.3L377.18 374.14L375.27 375.93L373.27 377.65L371.19 379.31L369.04 380.9L366.82 382.42L364.53 383.87L362.17 385.25L359.74 386.56L357.25 387.79L354.7 388.94L352.09 390.01L349.43 391L346.71 391.9L343.94 392.72L341.12 393.44L338.26 394.08L335.35 394.63L332.4 395.08L329.42 395.43L326.39 395.68L323.33 395.84L320.25 395.89L317.16 395.84L314.1 395.68L311.07 395.43L308.09 395.08L305.14 394.63L302.23 394.08L299.37 393.44L296.55 392.72L293.78 391.9L291.06 391L288.4 390.01L285.79 388.94L283.24 387.79L280.75 386.56L278.32 385.25L275.96 383.87L273.67 382.42L271.45 380.9L269.3 379.31L267.22 377.65L265.23 375.93L263.31 374.14L261.47 372.3L259.72 370.4L258.06 368.44L256.49 366.42L255.01 364.36L253.62 362.24L252.33 360.07L251.14 357.86L250.06 355.61L249.07 353.31L248.19 350.97L247.43 348.59L246.77 346.18L246.23 343.73L245.8 341.26L245.49 338.75L245.31 336.21L245.25 333.64L245.31 331.08L245.47 328.91L245.25 328.91L245.25 291.7L248.39 293.78L252.69 296.39L252.69 296.39L257.09 298.85Z" id="f7qArvwhw2"></path><path d="M208.22 29.9L215.87 22.64C216.24 22.25 216.48 22 216.57 21.9C221.11 17.11 226.93 13.74 233.34 12.17C233.36 12.17 233.4 12.16 233.47 12.14C233.67 12.1 233.8 12.06 233.85 12.05C240.22 10.5 246.7 9.46 253.24 8.93C253.26 8.92 253.3 8.92 253.37 8.91L264.08 8.91L274.03 9.72L285.51 12.14L296.23 15.37L307.7 19.41L318.42 23.45L334.49 27.48L347.5 29.9L360.51 30.71L371.22 31.52C371.22 31.52 371.22 31.52 371.22 31.52C379.35 32.06 387.38 33.62 395.12 36.17C395.2 36.19 395.4 36.26 395.71 36.36L405.66 39.59C405.66 39.59 405.66 39.59 405.66 39.59C411.72 42.26 417.19 46.1 421.75 50.91C421.95 51.12 422.45 51.66 423.26 52.51L430.92 61.39L438.57 71.08C438.61 71.14 438.63 71.18 438.64 71.19C442.13 76.97 444.39 83.41 445.3 90.1C445.32 90.26 445.37 90.64 445.46 91.26L445.46 102.56L446.02 115.2L446.63 124.21C446.63 124.29 446.63 124.33 446.63 124.35C446.87 131.55 447.96 138.69 449.89 145.63C450.07 146.26 450.5 147.83 451.2 150.35" id="b5KcLTmXK"></path><path d="M216.09 22.14C212.46 25.76 210.2 28.02 209.29 28.92C206.32 31.88 203.99 35.42 202.45 39.32C202.18 39.99 201.52 41.66 200.47 44.34C199.9 46.15 199.54 47.29 199.4 47.74C197.53 53.7 196.17 59.8 195.34 65.99C195.3 66.3 195.2 67.06 195.04 68.27L192.71 78.31L189.61 90.66L186.51 101.47L184.96 112.28C184.96 112.3 184.96 112.31 184.96 112.32C184.45 119.46 184.9 126.64 186.31 133.66C186.34 133.8 186.4 134.13 186.51 134.66L188.06 145.47L189.61 155.51L190.39 165.55L191.05 177.25" id="drnY4iGhe"></path><path d="M328.73 92.33L331.25 92.42L333.77 92.51L336.29 92.62L338.82 92.74L341.34 92.87L343.86 93.01L346.38 93.16L348.89 93.32L351.41 93.49L353.93 93.68L356.44 93.87L358.96 94.07L361.47 94.29L363.99 94.51L366.5 94.75L369.01 95L371.52 95.25L374.03 95.52L376.54 95.8L379.04 96.09L381.55 96.39L384.05 96.7L386.56 97.02L389.06 97.35L391.56 97.7L394.06 98.05L396.55 98.41L399.05 98.79L401.54 99.17L404.04 99.57L406.53 99.97L409.02 100.39L409.35 100.45L410.77 100.89L413.21 101.57L415.62 102.29L417.94 103.15L420.18 104.15L422.33 105.27L424.4 106.51L426.39 107.87L428.29 109.34L430.12 110.92L431.87 112.61L433.55 114.4L435.14 116.28L436.67 118.26L438.12 120.32L439.5 122.46L440.82 124.68L442.06 126.98L443.24 129.34L444.35 131.77L445.4 134.25L446.38 136.79L447.31 139.39L448.17 142.03L448.97 144.71L449.72 147.42L450.41 150.17L451.05 152.95L451.64 155.75L452.17 158.58L452.65 161.41L453.08 164.26L453.47 167.11L453.81 169.96L454.1 172.81L454.35 175.65L454.56 178.48L454.73 181.29L454.85 184.09L454.94 186.85L455 189.59L455.01 192.29L454.9 197.42L454.57 202.49L454.03 207.52L453.27 212.48L452.31 217.37L451.15 222.2L449.79 226.96L448.24 231.63L446.5 236.23L444.58 240.75L442.47 245.17L440.19 249.5L437.74 253.74L435.12 257.87L432.34 261.9L429.4 265.82L426.3 269.63L423.06 273.32L419.66 276.89L416.13 280.34L412.46 283.65L408.66 286.84L404.72 289.88L400.67 292.79L396.49 295.55L392.2 298.16L387.79 300.62L383.28 302.92L378.67 305.06L373.95 307.04L369.14 308.85L364.25 310.48L359.26 311.93L354.2 313.21L349.05 314.3L343.84 315.2L338.55 315.91L333.2 316.42L327.79 316.73L322.33 316.83L316.86 316.73L311.45 316.42L306.1 315.91L300.82 315.2L295.6 314.3L290.46 313.21L285.39 311.93L280.41 310.48L275.51 308.85L270.7 307.04L265.98 305.06L261.37 302.92L256.86 300.62L252.45 298.16L248.16 295.55L243.98 292.79L239.93 289.88L235.99 286.84L232.19 283.65L228.52 280.34L224.99 276.89L221.6 273.32L218.35 269.63L215.25 265.82L212.31 261.9L209.53 257.87L206.91 253.74L204.46 249.5L202.18 245.17L200.07 240.75L198.15 236.23L196.41 231.63L194.86 226.96L193.5 222.2L192.34 217.37L191.38 212.48L190.62 207.52L190.08 202.49L189.75 197.42L189.64 192.29L189.67 189.48L189.76 186.63L189.92 183.75L190.14 180.84L190.41 177.9L190.75 174.94L191.15 171.96L191.6 168.98L192.12 165.99L192.69 163L193.32 160.02L194.01 157.05L194.76 154.09L195.56 151.15L196.42 148.24L197.33 145.36L198.3 142.52L199.32 139.72L200.39 136.96L201.52 134.26L202.7 131.61L203.93 129.03L205.22 126.51L206.55 124.07L207.94 121.7L209.37 119.42L210.86 117.22L212.39 115.12L213.98 113.11L215.61 111.21L217.29 109.41L219.01 107.73L220.79 106.17L222.61 104.73L224.47 103.42L226.38 102.25L228.33 101.21L230.33 100.32L232.37 99.58L234.46 98.99L234.95 98.86L271.88 94.16L317.3 92.11L318.63 92.09L321.15 92.14L323.68 92.19L326.2 92.26L326.2 92.26L328.73 92.33Z" id="b8sXm6hfb"></path><path d="M395.25 338.91L395.25 294.34" id="c2CI7sq7WC"></path><path d="M245.25 338.91L245.25 294.34" id="b1o1M7nUHM"></path><path d="M632.25 511.47L632.25 632.4L0 632.4" id="a1RCThpEpu"></path><path d="M8.37 511.47L8.37 632.4" id="cVeqJIo9W"></path><path d="M245.25 342.48L48.68 419.22C44.04 421.5 41.14 422.92 39.98 423.49C32.03 427.38 25.23 433.26 20.23 440.56C18.48 443.12 20.81 439.72 19.04 442.29C14.09 449.51 11.24 457.96 10.8 466.71C10.47 473.09 9.66 489.04 8.37 514.57" id="b16jbJT8ic"></path><path d="M395.37 342.48L591.94 419.22C596.58 421.5 599.48 422.92 600.64 423.49C608.59 427.38 615.39 433.26 620.39 440.56C622.14 443.12 619.82 439.72 621.58 442.29C626.53 449.51 629.38 457.96 629.82 466.71C630.15 473.09 630.96 489.04 632.25 514.57" id="d2Y3UkFxc"></path><path d="M526.1 448.03C527.54 451.52 524.39 454.36 522.88 456.53C523.91 456.76 524.92 457.02 525.71 457.48C525.08 459.1 522.44 458.2 520.87 458.8C519.96 459.14 519.84 459.74 519.23 460.37C519.97 460.7 521.19 460.58 521.89 460.96C520.68 462 519.08 462.64 516.86 462.64C516.17 463.13 515.61 463.76 515.22 464.56C516.4 464.52 517.44 464.33 518.78 464.46C518.17 465.3 517.59 465.98 516.42 466.37C514.65 466.96 512.24 466.11 511.58 467.69C513.51 467.82 514.89 468.47 516.18 469.22C515.2 470.15 513.14 470.58 511.16 470.53C509.66 470.5 508.27 469.97 507.75 471.35C509.97 472.14 512.69 472.44 513.75 474.34C511.85 474.61 509.47 474.8 507.32 474.55C505.68 474.36 504.27 473.36 503.24 473.93C505.38 475.36 507.93 476.41 509.01 478.87C505.93 479.69 502.87 478.61 500.84 477.26C500.07 476.76 499.41 475.6 498.37 476.32C499.29 477.55 500.84 478.12 501.87 479.25C502.83 480.3 503.25 481.67 504.11 482.87C501.29 483.36 498.7 482.48 496.65 481.45C495.21 480.73 494.09 479.73 492.78 479.05C492.85 479.89 494.15 480.72 495.04 481.42C496.84 482.82 498.88 484.24 499.74 486.69C493.87 487.14 491.17 484.53 488.07 482.16C487.56 481.77 487.02 480.66 486.12 481.4C487.07 482.95 489.21 483.9 490.67 485.42C492.1 486.92 492.84 488.96 494.13 490.49C488.95 490.67 485.47 487.94 482.47 485.42C482.01 485.03 481.42 484.51 480.89 484.14C480.35 483.76 479.92 483.13 479.12 483.56C479.24 484.61 480.74 485.16 481.74 485.94C484.61 488.16 487.52 490.97 488.86 494.84C481.74 493.91 477.12 490.59 473.9 485.94C472.99 486.03 472.32 486.36 471.56 486.6C476.09 489.54 480.25 492.84 482.73 497.73C474.78 497.31 469.64 494.2 467.06 488.65C466 488.63 465.51 489.21 464.55 489.3C469.21 492.28 473.05 496.99 475.69 501.32C468.11 500.08 462.24 497.21 458.6 492.21C457.93 492.54 457.43 493.05 456.61 493.23C461.6 496.66 466.55 500.12 469.54 505.47C461.18 505.36 455.16 501.55 450.45 497.37C449.85 497.59 449.31 497.88 448.83 498.23C454.74 502.18 461.32 505.47 463.67 512.83C455.9 512.78 448.35 509.75 444.04 504.91C443.64 504.45 442.93 503.5 442.13 502.54C441.55 501.83 440.3 500.37 440.22 500.36C439.43 500.27 437.15 503.06 436.76 503.49C433.61 507.03 431.43 511.49 429.53 516C429.1 514.75 428.68 513.36 428.37 511.87C428.08 510.41 427.52 508.39 427.94 507.04C428.17 506.32 429.6 505.39 430.49 504.61C433 502.41 436.07 499.51 437.97 497.28C434.95 488.68 435.99 475.08 442.31 470.62C444.48 476.63 446.56 483.65 446.31 491.4C447.07 491.53 447.04 490.83 447.74 490.89C447.47 488.5 447.19 486.15 447.37 483.75C447.94 475.95 450.41 468.5 454.75 464.65C456.07 470.63 456.7 478.62 455.7 485.72C456.43 486.05 457.29 484.95 458.22 484.88C457.53 474.67 460.24 466.61 465.16 461.67C466.24 467.75 465.66 476.09 464.35 481.81C464.97 481.66 465.51 481.44 465.97 481.13C465.94 472.22 468.73 466.25 472.82 461.66C473.89 467.02 472.86 473.97 471.74 478.76C472.74 478.84 473.13 478.27 474.07 478.28C474 470.92 475.48 465.16 479.42 461.99C480.56 466.37 480.07 472.3 479.09 476.78C479.64 476.69 480.03 476.42 480.53 476.28C481 469.55 483.21 463.64 486.93 460.9C486.98 465.99 486.22 470.25 485.39 474.43C485.93 474.57 485.92 474.13 486.46 474.27C487.15 473.06 487.23 471.64 487.62 470.37C488.74 466.64 490.38 463.2 493.17 461.04C493.68 465.28 492.75 469.59 491.49 472.6C492.2 472.54 492.79 472.38 493.28 472.1C493.88 467.06 495.63 463.24 498.71 460.81C498.85 464.67 498.3 467.8 497.42 470.59C497.74 470.92 498.41 470.05 499.04 470.09C499.4 467.05 500.5 464.33 501.89 462.13C502.26 461.53 502.81 460.48 503.53 460.56C503.56 463.38 503.3 465.91 502.65 468.03C503.01 468.27 503.88 467.5 504.45 467.36C503.89 463.97 505.29 461.07 506.94 459.38C507.63 460.94 507.92 462.88 507.71 465.29C509.32 465.33 508.65 463.05 508.86 461.39C509.08 459.7 509.63 458.14 510.55 457.68C511.17 459.12 511.62 460.73 511.69 462.7C511.86 463.04 512.42 462.26 512.77 462.19C512.05 459.66 512.79 456.99 513.81 455.25C514.9 456.13 515.04 457.92 515.33 459.57C515.8 459.46 516.02 459.07 516.41 458.88C515.94 457.18 515.32 454.35 516.19 452.45C516.44 451.84 517.44 453.32 517.76 453.92C518.21 454.72 518.4 455.84 518.78 456.44C520.01 456.1 519.16 454.76 519.2 453.77C519.24 452.51 519.79 451.44 519.98 450.4C521.38 450.69 521.54 452.16 521.88 453.47C523.09 451.45 524.28 449.41 526.1 448.03" id="c6AAOgXrvd"></path><path d="M411.93 629.24C411.93 588.58 411.93 563.17 411.93 553C411.93 551.56 413.11 550.39 414.55 550.39C440.1 550.39 515.03 550.39 540.81 550.39C541.65 550.39 542.33 551.07 542.33 551.91C542.33 561.98 542.33 587.15 542.33 627.44" id="cQRSDf1rH"></path><path d="M537.83 576.59L410 575.81" id="d21m1Dcb26"></path><path d="M111.93 628.85C111.93 588.19 111.93 562.78 111.93 552.61C111.93 551.17 113.11 550 114.55 550C140.1 550 215.03 550 240.81 550C241.65 550 242.33 550.68 242.33 551.52C242.33 561.59 242.33 586.77 242.33 627.05" id="a4WDTPPKMv"></path><path d="M237.83 576.2L110 575.43" id="b2cobw0UWm"></path></defs><g><g><g><g><use xlink:href="#f7qArvwhw2" opacity="1" fill-opacity="0" stroke="#000000" stroke-width="15" stroke-opacity="1"></use></g></g><g><g><use xlink:href="#b5KcLTmXK" opacity="1" fill-opacity="0" stroke="#000000" stroke-width="15" stroke-opacity="1"></use></g></g><g><g><use xlink:href="#drnY4iGhe" opacity="1" fill-opacity="0" stroke="#000000" stroke-width="15" stroke-opacity="1"></use></g></g><g><g><use xlink:href="#b8sXm6hfb" opacity="1" fill-opacity="0" stroke="#000000" stroke-width="15" stroke-opacity="1"></use></g></g><g><g><use xlink:href="#c2CI7sq7WC" opacity="1" fill-opacity="0" stroke="#000000" stroke-width="15" stroke-opacity="1"></use></g></g><g><g><use xlink:href="#b1o1M7nUHM" opacity="1" fill-opacity="0" stroke="#000000" stroke-width="15" stroke-opacity="1"></use></g></g><g><g><g><use xlink:href="#a1RCThpEpu" opacity="1" fill-opacity="0" stroke="#000000" stroke-width="17" stroke-opacity="1"></use></g></g><g><g><use xlink:href="#cVeqJIo9W" opacity="1" fill-opacity="0" stroke="#000000" stroke-width="17" stroke-opacity="1"></use></g></g><g><g><use xlink:href="#b16jbJT8ic" opacity="1" fill-opacity="0" stroke="#000000" stroke-width="17" stroke-opacity="1"></use></g></g><g><g><use xlink:href="#d2Y3UkFxc" opacity="1" fill-opacity="0" stroke="#000000" stroke-width="17" stroke-opacity="1"></use></g></g></g><g><use xlink:href="#c6AAOgXrvd" opacity="1" fill="#000000" fill-opacity="1"></use><g><use xlink:href="#c6AAOgXrvd" opacity="1" fill-opacity="0" stroke="#000000" stroke-width="1" stroke-opacity="0"></use></g></g><g><g><g><use xlink:href="#cQRSDf1rH" opacity="1" fill-opacity="0" stroke="#000000" stroke-width="17" stroke-opacity="1"></use></g></g><g><g><use xlink:href="#d21m1Dcb26" opacity="1" fill-opacity="0" stroke="#000000" stroke-width="9" stroke-opacity="1"></use></g></g></g><g><g><g><use xlink:href="#a4WDTPPKMv" opacity="1" fill-opacity="0" stroke="#000000" stroke-width="17" stroke-opacity="1"></use></g></g><g><g><use xlink:href="#b2cobw0UWm" opacity="1" fill-opacity="0" stroke="#000000" stroke-width="9" stroke-opacity="1"></use></g></g></g></g></g></svg>