<?xml version="1.0" encoding="UTF-8" standalone="no"?>
<!DOCTYPE svg PUBLIC "-//W3C//DTD SVG 1.1//EN" "http://www.w3.org/Graphics/SVG/1.1/DTD/svg11.dtd">
<svg version="1.1" xmlns="http://www.w3.org/2000/svg" xmlns:xlink="http://www.w3.org/1999/xlink" preserveAspectRatio="xMidYMid meet" viewBox="0 0 640 640" width="640" height="640"><defs><path d="M196.29 566.22L196.69 568.22L195.29 572.42L191.09 576.02L187.49 578.82L182.09 579.62L177.09 577.62L171.09 574.62L162.69 569.82L159.89 569.82L158.49 570.42L45.05 498.42L43.05 496.22L29.25 484.42L19.85 474.42L13.25 449.02L14.65 446.22L16.65 443.02L20.05 441.62L23.05 441.22L26.53 441.22L122.87 342.62L127.27 338.82L130.07 334.42L134.27 331.22L139.27 329.22L141.47 326.62L143.67 324.42L144.07 311.82L165.87 255.42L168.47 247.62L170.07 244.02L172.27 241.82L174.68 240.12L440.25 83.42L447.25 79.62L455.25 77.82L460.45 77.02L463.45 77.62L474.05 83.62L474.65 85.62L553.48 128.02L566.08 134.62L577.48 141.62L584.88 146.22L589.08 145.82L599.08 151.62L601.28 154.22L602.28 157.82L602.28 161.22L601.88 167.42L601.28 170.62L599.68 174.22L597.28 179.42L551.08 249.22L548.72 251.62L490.52 290.42L490.72 295.02L490.32 299.62L489.92 302.62C489.56 304.71 488.25 307.38 486 310.63C483.75 313.88 479.25 320.38 472.5 330.13L468 332.13L464.5 336.63L462 341.13L459.5 345.63L457 351.63L454.5 355.63L430.5 389.13L354.5 443.13L329.5 480.13L317 497.63L313 501.13L309.5 504.13L304 505.63L299.5 505.63L280 493.63L273.5 497.63L263.5 505.13L252.5 512.63L242.5 520.13L232.5 527.63L223 536.63L216 542.13L210 548.63L204 554.63L196.5 562.63L196.29 566.22Z" id="aaREguXPs"></path><path d="M343.36 167.37L471.86 89.87L576.11 147.12L452.61 231.12L343.36 167.37Z" id="f1xzQbyPHf"></path><path d="M343.7 167.34C343.84 167.29 343.93 167.26 343.96 167.25C388.99 153.29 436.81 178.47 450.77 223.5C451.07 224.48 451.84 226.94 453.06 230.87L397.28 198.84L343.7 167.34Z" id="dL7iaMZSK"></path><path d="M471.64 89.89C473.18 90.23 474.14 90.45 474.52 90.53C507.03 97.86 537.15 113.32 562.06 135.46C563.83 137.04 568.28 141 575.4 147.32L517.17 115.4L471.64 89.89Z" id="c7Gca1gciF"></path><path d="M240.87 256.02L329.53 306.15L310.78 320.17L230.23 271.74L240.87 256.02Z" id="a10WnhT4ii"></path><path d="M182.45 535.07C187.02 537.76 189.74 542.74 189.52 548.04C189.23 555.49 188.76 567.15 188.48 574.08C188.28 579.05 182.77 581.94 178.57 579.28C146.79 559.18 61.28 505.07 29.59 485.02C23.32 481.06 19.15 474.52 18.21 467.17C17.41 460.96 16.5 453.92 15.7 447.71C15.09 442.98 20.18 439.62 24.28 442.04C57.4 461.52 148.8 515.28 182.45 535.07Z" id="a254fJSHvX"></path><path d="M36.04 469.27L161.7 547.6L164.04 561.77L38.7 485.77L36.04 469.27Z" id="d1OOUFfHtk"></path><path d="M309.71 320.35L192.71 252.31L156.17 336.72L273 404.64L309.71 320.35Z" id="d3FwhsliWf"></path><path d="M309.23 322.47L293.73 360.97L287.73 374.97L282.23 386.97L277.73 397.47L273.73 404.97L268.73 411.47L262.23 418.97L163.23 522.47" id="aFdtAFw95"></path><path d="M192.23 253.47L176.73 291.97L170.73 305.97L165.23 317.97L160.73 328.47L156.73 335.97L151.73 342.47L145.23 349.97L46.23 453.47" id="c4PTQKV4XD"></path><path d="M244.46 257.7L330.21 307.45L367.96 283.2L263.46 221.2L244.46 257.7Z" id="c1QwNFxlGm"></path><path d="M367.71 283.7L421.21 249.2L309.46 180.95L263.71 221.2L367.71 283.7Z" id="bksRs4bWN"></path><path d="M230.96 272.7L244.21 257.2L263.71 221.45L309.71 181.45L192.71 250.45L230.96 272.7Z" id="fwD5kzgzM"></path><path d="M323.3 328.47L176.8 242.47" id="bkXkCmE6u"></path></defs><g><g><g><use xlink:href="#aaREguXPs" opacity="1" fill="#1b1b1b" fill-opacity="1"></use></g><g><use xlink:href="#f1xzQbyPHf" opacity="1" fill="#bdbdbd" fill-opacity="1"></use></g><g><use xlink:href="#dL7iaMZSK" opacity="1" fill="#dadada" fill-opacity="1"></use></g><g><use xlink:href="#c7Gca1gciF" opacity="1" fill="#dadada" fill-opacity="1"></use></g><g><use xlink:href="#a10WnhT4ii" opacity="1" fill="#030303" fill-opacity="1"></use></g><g><use xlink:href="#a254fJSHvX" opacity="1" fill="#141414" fill-opacity="1"></use></g><g><use xlink:href="#d1OOUFfHtk" opacity="1" fill="#030303" fill-opacity="1"></use></g><g><use xlink:href="#d3FwhsliWf" opacity="1" fill="#202020" fill-opacity="1"></use></g><g><g><use xlink:href="#aFdtAFw95" opacity="1" fill-opacity="0" stroke="#686868" stroke-width="2" stroke-opacity="1"></use></g></g><g><g><use xlink:href="#c4PTQKV4XD" opacity="1" fill-opacity="0" stroke="#686868" stroke-width="2" stroke-opacity="1"></use></g></g><g><use xlink:href="#c1QwNFxlGm" opacity="1" fill="#171717" fill-opacity="1"></use></g><g><use xlink:href="#bksRs4bWN" opacity="1" fill="#202020" fill-opacity="1"></use></g><g><use xlink:href="#fwD5kzgzM" opacity="1" fill="#0e0e0e" fill-opacity="1"></use></g><g><g><use xlink:href="#bkXkCmE6u" opacity="1" fill-opacity="0" stroke="#686868" stroke-width="4" stroke-opacity="1"></use></g></g></g></g></svg>